[h264 @ 0x5637a3603100] Reinit context to 480x848, pix_fmt: yuv420p
Input #0, mov,mp4,m4a,3gp,3g2,mj2, from '/var/www/html/project/media/video/original/pr.mp4':
  Metadata:
    major_brand     : mp42
    minor_version   : 0
    compatible_brands: mp42mp41
    creation_time   : 2023-10-10T10:44:01.000000Z
  Duration: 00:01:10.19, start: 0.000000, bitrate: 10967 kb/s
    Stream #0:0(eng): Video: h264 (Main), 1 reference frame (avc1 / 0x31637661), yuv420p(tv, bt709, left), 480x848, 10651 kb/s, 29.97 fps, 29.97 tbr, 30k tbn, 59.94 tbc (default)
    Metadata:
      creation_time   : 2023-10-10T10:44:01.000000Z
      handler_name    : ?Mainconcept Video Media Handler
      encoder         : AVC Coding
    Stream #0:1(eng): Audio: aac (LC) (mp4a / 0x6134706D), 48000 Hz, stereo, fltp, 317 kb/s (default)
    Metadata:
      creation_time   : 2023-10-10T10:44:01.000000Z
      handler_name    : #Mainconcept MP4 Sound Media Handler
Input #1, png_pipe, from '/var/www/html/project/static/images/templates/logo_vertical.png':
  Duration: N/A, bitrate: N/A
    Stream #1:0: Video: png, 1 reference frame, rgba(pc), 1920x1080 [SAR 2835:2835 DAR 16:9], 25 tbr, 25 tbn, 25 tbc
[h264 @ 0x5637a3646680] Reinit context to 1280x720, pix_fmt: yuv420p
Input #2, mov,mp4,m4a,3gp,3g2,mj2, from '/var/www/html/project/static/images/templates/Codino.mp4':
  Metadata:
    major_brand     : mp42
    minor_version   : 1
    compatible_brands: isommp41mp42
    creation_time   : 2021-07-11T07:02:58.000000Z
  Duration: 00:00:02.00, start: 0.000000, bitrate: 1007 kb/s
    Stream #2:0(ita): Audio: aac (LC) (mp4a / 0x6134706D), 44100 Hz, stereo, fltp, 102 kb/s (default)
    Metadata:
      creation_time   : 2021-07-11T07:02:58.000000Z
      handler_name    : Core Media Audio
    Stream #2:1(und): Video: h264 (High), 1 reference frame (avc1 / 0x31637661), yuv420p(tv, bt709, progressive, left), 1280x720 [SAR 1:1 DAR 16:9], 813 kb/s, 25 fps, 25 tbr, 25k tbn, 50k tbc (default)
    Metadata:
      creation_time   : 2021-07-11T07:02:58.000000Z
      handler_name    : Core Media Video
[Parsed_scale_1 @ 0x5637a3628880] w:1280 h:720 flags:'bilinear' interl:0
[Parsed_scale_4 @ 0x5637a3673f80] w:-1 h:720 flags:'bilinear' interl:0
[Parsed_scale_7 @ 0x5637a3674b00] w:1280 h:720 flags:'bilinear' interl:0
[Parsed_scale_9 @ 0x5637a361c6c0] w:1280 h:720 flags:'bilinear' interl:0
Stream mapping:
  Stream #0:0 (h264) -> split
  Stream #0:1 (aac) -> concat:in0:a0
  Stream #1:0 (png) -> scale
  Stream #2:0 (aac) -> concat:in1:a0
  Stream #2:1 (h264) -> scale
  concat:out:v0 -> Stream #0:0 (libx264)
  concat:out:a0 -> Stream #0:1 (aac)
Press [q] to stop, [?] for help
[h264 @ 0x5637a3651c00] Reinit context to 480x848, pix_fmt: yuv420p
[h264 @ 0x5637a3b17cc0] Reinit context to 1280x720, pix_fmt: yuv420p
[Parsed_scale_1 @ 0x5637a4649040] w:1280 h:720 flags:'bilinear' interl:0
[Parsed_scale_4 @ 0x5637a4652c80] w:-1 h:720 flags:'bilinear' interl:0
[Parsed_scale_7 @ 0x5637a46568c0] w:1280 h:720 flags:'bilinear' interl:0
[Parsed_scale_9 @ 0x5637a4658080] w:1280 h:720 flags:'bilinear' interl:0
[graph 0 input from stream 0:0 @ 0x5637a465c900] w:480 h:848 pixfmt:yuv420p tb:1/30000 fr:30000/1001 sar:0/1 sws_param:flags=2
[graph 0 input from stream 1:0 @ 0x5637a465d9c0] w:1920 h:1080 pixfmt:rgba tb:1/25 fr:25/1 sar:2835/2835 sws_param:flags=2
[graph 0 input from stream 2:1 @ 0x5637a4652f40] w:1280 h:720 pixfmt:yuv420p tb:1/25000 fr:25/1 sar:1/1 sws_param:flags=2
[graph_0_in_0_1 @ 0x5637a4654f80] tb:1/48000 samplefmt:fltp samplerate:48000 chlayout:0x3
[graph_0_in_2_0 @ 0x5637a4654880] tb:1/44100 samplefmt:fltp samplerate:44100 chlayout:0x3
[Parsed_concat_12 @ 0x5637a465a980] auto-inserting filter 'auto_resampler_0' between the filter 'graph_0_in_2_0' and the filter 'Parsed_concat_12'
[Parsed_scale_1 @ 0x5637a4649040] w:480 h:848 fmt:yuv420p sar:0/1 -> w:1280 h:720 fmt:yuv420p sar:0/1 flags:0x2
[Parsed_boxblur_2 @ 0x5637a380a4c0] luma_radius:36 luma_power:1 chroma_radius:18 chroma_power:1 alpha_radius:36 alpha_power:1 w:1280 chroma_w:640 h:720 chroma_h:360
[Parsed_setsar_3 @ 0x5637a4653040] w:1280 h:720 sar:0/1 dar:16/9 -> sar:1/1 dar:16/9
[Parsed_scale_4 @ 0x5637a4652c80] w:480 h:848 fmt:yuv420p sar:0/1 -> w:408 h:720 fmt:yuva420p sar:0/1 flags:0x2
[Parsed_setsar_5 @ 0x5637a380a840] w:408 h:720 sar:0/1 dar:17/30 -> sar:1/1 dar:17/30
[Parsed_overlay_6 @ 0x5637a4655440] main w:1280 h:720 fmt:yuv420p overlay w:408 h:720 fmt:yuva420p
[Parsed_overlay_6 @ 0x5637a4655440] [framesync @ 0x5637a46558e8] Selected 1/30000 time base
[Parsed_overlay_6 @ 0x5637a4655440] [framesync @ 0x5637a46558e8] Sync level 2
[Parsed_scale_7 @ 0x5637a46568c0] w:1920 h:1080 fmt:rgba sar:2835/2835 -> w:1280 h:720 fmt:yuva420p sar:1/1 flags:0x2
[Parsed_setsar_8 @ 0x5637a4657440] w:1280 h:720 sar:1/1 dar:16/9 -> sar:1/1 dar:16/9
[Parsed_overlay_11 @ 0x5637a4659840] main w:1280 h:720 fmt:yuv420p overlay w:1280 h:720 fmt:yuva420p
[Parsed_overlay_11 @ 0x5637a4659840] [framesync @ 0x5637a46599a8] Selected 1/30000 time base
[Parsed_overlay_11 @ 0x5637a4659840] [framesync @ 0x5637a46599a8] Sync level 2
[Parsed_scale_9 @ 0x5637a4658080] w:1280 h:720 fmt:yuv420p sar:1/1 -> w:1280 h:720 fmt:yuv420p sar:1/1 flags:0x2
[Parsed_setsar_10 @ 0x5637a4658b40] w:1280 h:720 sar:1/1 dar:16/9 -> sar:1/1 dar:16/9
[auto_resampler_0 @ 0x5637a4665ac0] ch:2 chl:stereo fmt:fltp r:44100Hz -> ch:2 chl:stereo fmt:fltp r:48000Hz
[libx264 @ 0x5637a3648700] using SAR=1/1
[libx264 @ 0x5637a3648700] using cpu capabilities: MMX2 SSE2Fast SSSE3 SSE4.2 AVX FMA3 BMI2 AVX2
[libx264 @ 0x5637a3648700] profile High, level 3.1
[libx264 @ 0x5637a3648700] 264 - core 155 r2917 0a84d98 - H.264/MPEG-4 AVC codec - Copyleft 2003-2018 - http://www.videolan.org/x264.html - options: cabac=1 ref=1 deblock=1:0:0 analyse=0x3:0x113 me=hex subme=2 psy=1 psy_rd=1.00:0.00 mixed_ref=0 me_range=16 chroma_me=1 trellis=0 8x8dct=1 cqm=0 deadzone=21,11 fast_pskip=1 chroma_qp_offset=0 threads=22 lookahead_threads=5 sliced_threads=0 nr=0 decimate=1 interlaced=0 bluray_compat=0 constrained_intra=0 bframes=3 b_pyramid=2 b_adapt=1 b_bias=0 direct=1 weightb=1 open_gop=0 weightp=1 keyint=250 keyint_min=25 scenecut=40 intra_refresh=0 rc_lookahead=10 rc=crf mbtree=1 crf=18.0 qcomp=0.60 qpmin=0 qpmax=69 qpstep=4 ip_ratio=1.40 aq=1:1.00
Output #0, mp4, to '/var/www/html/project/media/video/watermarks/pr.mp4':
  Metadata:
    major_brand     : mp42
    minor_version   : 0
    compatible_brands: mp42mp41
    encoder         : Lavf58.29.100
    Stream #0:0: Video: h264 (libx264), 1 reference frame (avc1 / 0x31637661), yuv420p(progressive), 1280x720 [SAR 1:1 DAR 16:9], q=-1--1, 29.97 fps, 30k tbn, 29.97 tbc (default)
    Metadata:
      encoder         : Lavc58.54.100 libx264
    Side data:
      cpb: bitrate max/min/avg: 0/0/0 buffer size: 0 vbv_delay: -1
    Stream #0:1: Audio: aac (LC) (mp4a / 0x6134706D), 48000 Hz, stereo, fltp, delay 1024, 128 kb/s (default)
    Metadata:
      encoder         : Lavc58.54.100 aac
[Parsed_overlay_6 @ 0x5637a4655440] [framesync @ 0x5637a46558e8] Sync level 1
[Parsed_overlay_6 @ 0x5637a4655440] [framesync @ 0x5637a46558e8] Sync level 0
[Parsed_overlay_11 @ 0x5637a4659840] [framesync @ 0x5637a46599a8] Sync level 0
[Parsed_concat_12 @ 0x5637a465a980] EOF on in0:v0, 1 streams left in segment.
[Parsed_concat_12 @ 0x5637a465a980] EOF on in0:a0, 0 streams left in segment.
[Parsed_concat_12 @ 0x5637a465a980] Segment finished at pts=70144000
[Parsed_concat_12 @ 0x5637a465a980] EOF on in1:v0, 1 streams left in segment.
[Parsed_concat_12 @ 0x5637a465a980] EOF on in1:a0, 0 streams left in segment.
[Parsed_concat_12 @ 0x5637a465a980] Segment finished at pts=72162687
No more output streams to write to, finishing.
frame= 2152 fps= 36 q=-1.0 Lsize=   26809kB time=00:01:12.17 bitrate=3043.1kbits/s speed= 1.2x    
[AVIOContext @ 0x5637a3601500] Statistics: 0 seeks, 118 writeouts
video:25597kB audio:1133kB subtitle:0kB other streams:0kB global headers:0kB muxing overhead: 0.293960%
Input file #0 (/var/www/html/project/media/video/original/pr.mp4):
  Input stream #0:0 (video): 2102 packets read (93384325 bytes); 2102 frames decoded; 
  Input stream #0:1 (audio): 3288 packets read (2782744 bytes); 3288 frames decoded (3366912 samples); 
  Total: 5390 packets (96167069 bytes) demuxed
Input file #1 (/var/www/html/project/static/images/templates/logo_vertical.png):
  Input stream #1:0 (video): 1 packets read (93903 bytes); 1 frames decoded; 
  Total: 1 packets (93903 bytes) demuxed
Input file #2 (/var/www/html/project/static/images/templates/Codino.mp4):
  Input stream #2:0 (audio): 89 packets read (26579 bytes); 87 frames decoded (89024 samples); 
  Input stream #2:1 (video): 50 packets read (203365 bytes); 50 frames decoded; 
  Total: 139 packets (229944 bytes) demuxed
Output file #0 (/var/www/html/project/media/video/watermarks/pr.mp4):
  Output stream #0:0 (video): 2152 frames encoded; 2152 packets muxed (26211817 bytes); 
  Output stream #0:1 (audio): 3383 frames encoded (3463809 samples); 3384 packets muxed (1160261 bytes); 
  Total: 5536 packets (27372078 bytes) muxed
[AVIOContext @ 0x5637a3674400] Statistics: 2 seeks, 108 writeouts
[libx264 @ 0x5637a3648700] frame I:13    Avg QP:14.38  size: 88395
[libx264 @ 0x5637a3648700] frame P:565   Avg QP:17.81  size: 28446
[libx264 @ 0x5637a3648700] frame B:1574  Avg QP:20.23  size:  5711
[libx264 @ 0x5637a3648700] consecutive B-frames:  1.7%  1.7%  1.8% 94.8%
[libx264 @ 0x5637a3648700] mb I  I16..4: 24.2% 36.2% 39.6%
[libx264 @ 0x5637a3648700] mb P  I16..4:  9.3% 12.3%  1.8%  P16..4: 28.7% 14.0%  9.9%  0.0%  0.0%    skip:24.1%
[libx264 @ 0x5637a3648700] mb B  I16..4:  1.3%  0.7%  0.0%  B16..8: 17.3%  6.6%  1.0%  direct:10.5%  skip:62.6%  L0:36.4% L1:44.4% BI:19.1%
[libx264 @ 0x5637a3648700] 8x8 transform intra:48.3% inter:23.6%
[libx264 @ 0x5637a3648700] coded y,uvDC,uvAC intra: 31.2% 44.6% 5.0% inter: 11.7% 12.8% 0.4%
[libx264 @ 0x5637a3648700] i16 v,h,dc,p: 24% 33% 12% 31%
[libx264 @ 0x5637a3648700] i8 v,h,dc,ddl,ddr,vr,hd,vl,hu: 15% 40% 17%  4%  5%  4%  8%  4%  4%
[libx264 @ 0x5637a3648700] i4 v,h,dc,ddl,ddr,vr,hd,vl,hu: 21% 18% 16%  6% 10%  8%  8%  7%  6%
[libx264 @ 0x5637a3648700] i8c dc,h,v,p: 53% 24% 15%  8%
[libx264 @ 0x5637a3648700] Weighted P-Frames: Y:3.5% UV:0.0%
[libx264 @ 0x5637a3648700] kb/s:2906.75
[aac @ 0x5637a372dac0] Qavg: 822.149
[AVIOContext @ 0x5637a360a500] Statistics: 96219372 bytes read, 0 seeks
[AVIOContext @ 0x5637a364a240] Statistics: 93903 bytes read, 0 seeks
[AVIOContext @ 0x5637a36fbd40] Statistics: 1530915 bytes read, 42 seeks
